<svg width="25" height="24" viewBox="0 0 25 24" fill="none" xmlns="http://www.w3.org/2000/svg">
<path fill-rule="evenodd" clip-rule="evenodd" d="M15.5724 3C15.719 3.99553 15.3138 4.97082 14.7792 5.66085C14.2073 6.401 13.2216 6.97345 12.2665 6.94358C12.0921 5.99045 12.5385 5.00841 13.0817 4.34826C13.6776 3.61968 14.6987 3.06071 15.5724 3ZM18.4415 17.0126C18.9338 16.258 19.1178 15.8773 19.5 15.0254C16.72 13.9682 16.2746 10.0159 19.0258 8.49902C18.1866 7.44663 17.0074 6.83659 15.8942 6.83659C15.0922 6.83659 14.5426 7.0459 14.043 7.23618C13.6267 7.39475 13.2451 7.54011 12.7809 7.54011C12.2793 7.54011 11.8351 7.38085 11.37 7.21408C10.8589 7.03083 10.3225 6.83852 9.65697 6.83852C8.40779 6.83852 7.07815 7.60179 6.23514 8.90668C5.05015 10.7445 5.25228 14.1995 7.17394 17.1427C7.8608 18.1961 8.77852 19.3795 9.97884 19.3901C10.4769 19.3951 10.8083 19.2464 11.167 19.0855C11.5775 18.9014 12.0237 18.7013 12.7962 18.6972C13.5733 18.6925 14.0124 18.8951 14.4175 19.0819C14.7669 19.2431 15.091 19.3926 15.5848 19.3872C16.7861 19.3776 17.7546 18.0659 18.4415 17.0126Z" fill="white"/>
</svg>
