<svg width="300" height="70" viewBox="0 0 300 70" fill="none" xmlns="http://www.w3.org/2000/svg">
<g opacity="0.5">
<path d="M4.66724 52.1197C4.58962 52.1292 4.52052 52.1279 4.45992 52.1156C4.40171 52.1227 4.3326 52.1214 4.2526 52.1115C3.69259 52.0424 3.13276 51.8945 2.5731 51.6677C2.03285 51.4386 1.56324 51.0629 1.16427 50.5407C0.762912 49.9991 0.505054 49.2626 0.39069 48.3311C0.345422 47.9624 0.325686 47.5611 0.331482 47.127C0.345115 46.436 0.42207 45.6189 0.562347 44.676C0.719646 43.7112 0.920692 42.7016 1.16548 41.6473L1.13638 41.6509C1.01995 41.6652 0.915608 41.6977 0.82335 41.7484C0.731093 41.7992 0.636453 41.8305 0.539431 41.8424C0.228959 41.8805 0.0510891 41.7152 0.00582019 41.3465C-0.020388 41.1331 0.0419152 40.9186 0.19273 40.7031C0.343544 40.4877 0.496569 40.3704 0.651805 40.3513L1.52143 40.215C1.85168 38.8941 2.19026 37.6412 2.53718 36.4562C2.90113 35.2494 3.21724 34.2946 3.48551 33.592C3.56109 33.4054 3.68144 33.2626 3.84655 33.1636C4.02868 33.0427 4.21677 32.9704 4.41081 32.9466C4.60486 32.9227 4.77575 32.951 4.92349 33.0313C5.08826 33.0899 5.18017 33.1968 5.19923 33.352C5.204 33.3908 5.19413 33.4708 5.16961 33.592L3.84747 37.743C3.71809 38.1332 3.59604 38.5027 3.48131 38.8516C3.38598 39.1982 3.28095 39.5459 3.16622 39.8949C3.55431 39.8472 3.95329 39.8081 4.36317 39.7774C4.79245 39.7444 5.27263 39.7249 5.80369 39.7188C5.9031 39.7262 6.00846 39.7822 6.11978 39.8868C6.2311 39.9913 6.29509 40.1114 6.31177 40.2473C6.32369 40.3443 6.29679 40.4461 6.23108 40.5526C6.1824 40.6374 6.05253 40.7026 5.84146 40.7482C5.3829 40.8636 4.87345 40.9655 4.3131 41.054C3.75037 41.1231 3.24704 41.1948 2.80312 41.269C2.50216 42.5075 2.27541 43.6285 2.12287 44.6321C1.98974 45.6333 1.89798 46.5703 1.84757 47.4432C1.84485 47.5814 1.84212 47.7196 1.83939 47.8578C1.85607 47.9936 1.87156 48.1198 1.88585 48.2362C1.99307 49.1094 2.30574 49.7308 2.82386 50.1006C3.34199 50.4703 3.90284 50.7067 4.50642 50.8099C4.86999 50.8834 5.12684 50.9701 5.27697 51.0698C5.44888 51.1866 5.54199 51.3032 5.55628 51.4196C5.57534 51.5749 5.495 51.7226 5.31525 51.8629C5.15491 52.0007 4.9389 52.0863 4.66724 52.1197Z" fill="black"/>
<path d="M10.1444 38.5062C10.0616 38.6346 9.93669 38.6598 9.76954 38.5818C9.62179 38.5015 9.4875 38.3702 9.36665 38.1881C9.24342 37.9866 9.1893 37.7864 9.20428 37.5876L9.23339 37.584C9.27526 37.2834 9.3425 37.0289 9.43511 36.8206C9.52771 36.6122 9.65912 36.3991 9.82934 36.1813C9.93147 36.0505 10.0796 35.9733 10.2736 35.9495C10.4482 35.928 10.6106 35.9672 10.7608 36.0669C10.9279 36.1449 11.021 36.2615 11.0401 36.4167C11.0496 36.4943 11.0312 36.5852 10.9849 36.6894C10.9362 36.7742 10.8448 36.9922 10.7107 37.3435C10.5959 37.6925 10.4072 38.08 10.1444 38.5062ZM7.79566 49.6969C7.48519 49.735 7.16042 49.6567 6.82136 49.462C6.49932 49.2455 6.33405 48.862 6.32555 48.3115C6.31025 47.5452 6.33835 46.8918 6.40985 46.3512C6.48135 45.8106 6.57821 45.3161 6.70044 44.8677C6.82028 44.4 6.94625 43.902 7.07835 43.3736C7.22985 42.8429 7.36825 42.2054 7.49354 41.4613C7.56946 41.1171 7.79177 40.9224 8.16045 40.8771C8.41271 40.8461 8.64539 40.8964 8.8585 41.0278C9.0716 41.1592 9.15602 41.3655 9.11176 41.6467C8.95957 42.4926 8.78832 43.1834 8.59801 43.7188C8.4077 44.2543 8.22964 44.7292 8.06385 45.1435C7.89567 45.5384 7.76136 45.9686 7.66092 46.4339C7.57751 46.8775 7.55809 47.4412 7.60267 48.1252C7.60982 48.1834 7.75143 48.294 8.02752 48.4571C8.30122 48.6008 8.45237 48.789 8.48096 49.0219C8.5024 49.1965 8.42444 49.3637 8.24707 49.5233C8.15958 49.6128 8.00911 49.6707 7.79566 49.6969Z" fill="black"/>
<path d="M26.8215 48.1881C26.3363 48.2477 25.9741 48.105 25.7348 47.7602C25.5149 47.4129 25.3728 46.9774 25.3085 46.4534C25.2251 45.7743 25.2448 45.0529 25.3677 44.2893C25.4883 43.5064 25.6255 42.8592 25.7794 42.3479C26.1311 41.2017 26.2855 40.4539 26.2426 40.1046C26.2092 39.833 26.0664 39.7126 25.8141 39.7436C25.7559 39.7507 25.688 39.7591 25.6104 39.7686C25.5522 39.7758 25.4867 39.8035 25.4138 39.8518C24.8895 40.0738 24.297 40.4617 23.6362 41.0156C22.9948 41.567 22.3606 42.1767 21.7335 42.8446C21.1064 43.5125 20.5752 44.1588 20.1398 44.7835C19.9062 45.1273 19.6981 45.5173 19.5152 45.9534C19.3324 46.3895 19.1826 46.6935 19.0658 46.8654C18.8834 47.1439 18.6466 47.301 18.3555 47.3367C18.1615 47.3605 17.9785 47.314 17.8066 47.1973C17.6517 47.0587 17.5843 46.8306 17.6044 46.513C17.6477 45.5819 17.6841 44.9964 17.7137 44.7564C17.741 44.497 17.7643 44.3661 17.7837 44.3637L17.7479 44.0727C17.6908 43.6069 17.608 43.1739 17.4998 42.7736C17.4086 42.3514 17.271 42.0335 17.0872 41.8197C16.9228 41.6035 16.701 41.5618 16.4219 41.6946C15.917 41.9141 15.3536 42.2985 14.7316 42.8476C14.1096 43.3967 13.5045 44.0028 12.9162 44.6659C12.3279 45.3291 11.8319 45.9415 11.4282 46.5032C11.0098 47.1061 10.7541 47.5905 10.6612 47.9564C10.5876 48.32 10.5508 48.5018 10.5508 48.5018C10.4 48.7173 10.247 48.8346 10.0918 48.8536C9.72308 48.8989 9.49823 48.5917 9.41723 47.9319C9.34575 47.3498 9.37147 46.6769 9.49438 45.9133C9.61729 45.1498 9.7899 44.3899 10.0122 43.6338C10.2516 42.856 10.4737 42.1787 10.6787 41.602C10.8152 41.2701 11.0387 41.0851 11.3491 41.047C11.5626 41.0207 11.7468 41.0769 11.9017 41.2155C12.0759 41.3517 12.1604 41.558 12.1549 41.8344C12.1692 41.9508 12.0814 42.198 11.8914 42.5758C11.6991 42.9343 11.5065 43.3716 11.3138 43.8877C11.1382 44.382 11.0546 44.9043 11.0631 45.4548C11.236 45.0987 11.3918 44.8432 11.5303 44.6883C11.6859 44.5117 11.8744 44.2817 12.0956 43.9985C12.5722 43.3884 12.9855 42.9044 13.3355 42.5462C13.7049 42.1857 14.0984 41.8617 14.5161 41.574C14.9338 41.2863 15.4547 40.9565 16.0787 40.5844C16.2415 40.4659 16.4163 40.3657 16.6032 40.2837C16.7901 40.2016 16.9805 40.1487 17.1746 40.1249C17.485 40.0867 17.7807 40.1686 18.0616 40.3705C18.34 40.553 18.5914 40.916 18.8158 41.4597C19.0595 42.001 19.2372 42.8065 19.3488 43.8761C19.5943 43.6293 19.8009 43.3872 19.9687 43.15C20.1536 42.8909 20.3567 42.6198 20.578 42.3365C21.0716 41.7047 21.5104 41.1879 21.8944 40.7862C22.2955 40.3628 22.7219 39.9854 23.1736 39.6542C23.6424 39.3012 24.207 38.9265 24.8674 38.5303C25.069 38.4071 25.3105 38.2888 25.5921 38.1754C25.8712 38.0427 26.1466 37.9596 26.4183 37.9262C26.7482 37.8857 27.0511 37.947 27.3272 38.1101C27.6033 38.2732 27.7735 38.6167 27.8378 39.1406C27.8807 39.4899 27.8664 39.9348 27.7949 40.4754C27.7404 40.9942 27.5935 41.6426 27.3542 42.4204C27.1465 43.1353 26.9836 43.894 26.8654 44.6964C26.7667 45.4964 26.7095 46.1534 26.6938 46.6674C26.9454 46.9517 27.0938 47.2782 27.1391 47.6469C27.1558 47.7827 27.141 47.9027 27.0947 48.0069C27.0484 48.111 26.9573 48.1714 26.8215 48.1881Z" fill="black"/>
<path d="M32.8028 48.7242C32.6476 48.7432 32.4597 48.7367 32.2391 48.7047C31.0078 48.462 30.0656 47.9277 29.4127 47.1018C28.7574 46.2565 28.3678 45.3293 28.2439 44.3203C28.2249 44.165 28.207 44.0195 28.1903 43.8837C28.1907 43.7261 28.1922 43.5781 28.1949 43.4399C28.2338 42.3124 28.4821 41.2872 28.94 40.3643C29.4173 39.4391 29.9816 38.6607 30.6329 38.0292C31.3011 37.3759 31.9265 36.9348 32.509 36.7057C32.8852 36.561 33.2637 36.4357 33.6447 36.3299C34.0232 36.2046 34.3968 36.1193 34.7655 36.074C35.6969 35.9597 36.5175 36.0657 37.2273 36.3922C37.9371 36.7187 38.3492 37.3477 38.4636 38.2791C38.5279 38.803 38.4213 39.2987 38.1439 39.7661C37.8858 40.2311 37.5333 40.6486 37.0863 41.0187C36.6563 41.3669 36.2289 41.6557 35.804 41.8852C35.1582 42.2402 34.4071 42.5393 33.5506 42.7823C32.7134 43.023 31.9165 43.1898 31.1597 43.2827C30.6746 43.3423 30.2247 43.368 29.8101 43.3598L29.8137 43.3889C29.8232 43.4665 29.823 43.5453 29.8131 43.6253C29.8009 43.6859 29.7995 43.755 29.8091 43.8326C29.7992 43.9126 29.799 43.9915 29.8085 44.0691C29.8157 44.1273 29.8228 44.1855 29.83 44.2437C29.9038 44.8453 30.0858 45.3646 30.3758 45.8017C30.6829 46.217 31.0216 46.5694 31.392 46.8587C31.76 47.1287 32.0626 47.3476 32.2999 47.5155C32.6706 47.6472 32.9334 47.7824 33.0883 47.9209C33.265 48.0765 33.3593 48.2028 33.3712 48.2998C33.3998 48.5327 33.2103 48.6741 32.8028 48.7242ZM31.7848 41.8764C32.3669 41.8049 32.9734 41.6911 33.6042 41.5348C34.2326 41.3592 34.803 41.1119 35.3154 40.7929C35.7161 40.527 36.0793 40.1968 36.4051 39.8023C36.7285 39.3883 36.8593 38.9291 36.7973 38.4246C36.7497 38.0365 36.5587 37.7645 36.2244 37.6086C35.8901 37.4526 35.4416 37.4092 34.8789 37.4783C34.2385 37.5569 33.5542 37.7591 32.8261 38.0849C32.5639 38.1959 32.247 38.4219 31.8752 38.763C31.5229 39.1017 31.1739 39.5484 30.8284 40.1029C30.4805 40.6381 30.2123 41.2619 30.0241 41.9744C30.2593 41.9652 30.5248 41.9622 30.8207 41.9652C31.1335 41.9465 31.4549 41.9169 31.7848 41.8764Z" fill="black"/>
<path d="M46.1535 46.5531C46.0177 46.5698 45.8613 46.5791 45.6842 46.5812C45.5266 46.5808 45.3581 46.572 45.1787 46.5546C44.9193 46.5274 44.7705 46.3585 44.7324 46.048C44.711 45.8734 44.7598 45.7098 44.879 45.5573C44.9958 45.3854 45.1827 45.3033 45.4397 45.3112C45.6555 45.3044 45.9891 45.2142 46.4405 45.0406C46.9114 44.8646 47.4259 44.6438 47.9842 44.3783C48.7999 43.963 49.458 43.5473 49.9584 43.1313C50.4588 42.7154 50.8551 42.2531 51.1472 41.7445C51.4587 41.2335 51.5883 40.7646 51.5358 40.3377C51.512 40.1436 51.4506 39.964 51.3515 39.7989C51.2501 39.6144 51.0819 39.4479 50.847 39.2995C50.4814 39.0489 50.0502 38.8261 49.5536 38.631C49.0569 38.436 48.5687 38.23 48.0891 38.0131C47.607 37.7769 47.1893 37.5031 46.836 37.192C46.4996 36.859 46.2993 36.4306 46.235 35.9067C46.1778 35.441 46.2939 35.0229 46.5832 34.6526C46.8702 34.2628 47.2141 33.9349 47.6148 33.6691C48.0325 33.3814 48.3906 33.17 48.6892 33.0349C48.9877 32.8997 49.2899 32.7937 49.5956 32.7168C49.8989 32.6204 50.2058 32.5532 50.5163 32.5151C50.8849 32.4698 51.2402 32.4754 51.582 32.532C51.9408 32.5667 52.2885 32.6717 52.6252 32.8471C52.8141 32.942 52.9569 33.0624 53.0536 33.2081C53.1503 33.3538 53.2082 33.5043 53.2272 33.6595C53.2534 33.873 53.2094 34.0753 53.095 34.2667C52.9976 34.4362 52.8422 34.5341 52.6287 34.5603C52.4735 34.5793 52.2602 34.5267 51.9889 34.4025L52.018 34.3989C51.553 34.1408 51.0391 34.0464 50.4764 34.1154C50.1659 34.1536 49.8893 34.2269 49.6466 34.3355C49.251 34.4826 48.8687 34.6575 48.4997 34.8604C48.1307 35.0633 47.9179 35.3357 47.8614 35.6774C47.8341 35.9369 48.0142 36.2003 48.4016 36.4679C48.806 36.7137 49.299 36.9585 49.8804 37.2023C50.4595 37.4266 50.9997 37.6557 51.5012 37.8896C51.9784 38.0871 52.3791 38.3826 52.7032 38.7761C53.0273 39.1697 53.2191 39.609 53.2787 40.0941C53.3525 40.6957 53.2009 41.3052 52.8236 41.9227C52.2129 42.8841 51.5492 43.655 50.8326 44.2354C50.1354 44.8134 49.3304 45.316 48.4177 45.7433C47.9153 45.9822 47.4941 46.162 47.1544 46.2825C46.817 46.4224 46.4834 46.5126 46.1535 46.5531Z" fill="black"/>
<path d="M58.8262 45.4698C58.7486 45.4793 58.6795 45.478 58.6189 45.4657C58.5607 45.4729 58.4916 45.4715 58.4116 45.4616C57.8516 45.3925 57.2917 45.2446 56.7321 45.0178C56.1918 44.7887 55.7222 44.413 55.3232 43.8908C54.9219 43.3492 54.664 42.6127 54.5496 41.6812C54.5044 41.3126 54.4846 40.9112 54.4904 40.4771C54.5041 39.7861 54.581 38.9691 54.7213 38.0261C54.8786 37.0613 55.0796 36.0518 55.3244 34.9975L55.2953 35.001C55.1789 35.0153 55.0746 35.0478 54.9823 35.0986C54.8901 35.1493 54.7954 35.1806 54.6984 35.1925C54.3879 35.2306 54.21 35.0654 54.1648 34.6967C54.1386 34.4832 54.2009 34.2687 54.3517 34.0533C54.5025 33.8378 54.6555 33.7205 54.8108 33.7014L55.6804 33.5651C56.0106 32.2443 56.3492 30.9913 56.6961 29.8063C57.0601 28.5995 57.3762 27.6448 57.6445 26.9421C57.72 26.7556 57.8404 26.6128 58.0055 26.5137C58.1876 26.3928 58.3757 26.3205 58.5698 26.2967C58.7638 26.2729 58.9347 26.3011 59.0825 26.3815C59.2472 26.44 59.3391 26.5469 59.3582 26.7022C59.363 26.741 59.3531 26.821 59.3286 26.9422L58.0064 31.0931C57.8771 31.4833 57.755 31.8528 57.6403 32.2017C57.5449 32.5483 57.4399 32.896 57.3252 33.245C57.7133 33.1973 58.1123 33.1582 58.5221 33.1276C58.9514 33.0945 59.4316 33.075 59.9627 33.0689C60.0621 33.0764 60.1674 33.1324 60.2787 33.2369C60.3901 33.3414 60.4541 33.4616 60.4707 33.5974C60.4826 33.6944 60.4557 33.7962 60.39 33.9028C60.3414 33.9875 60.2115 34.0527 60.0004 34.0983C59.5419 34.2137 59.0324 34.3157 58.4721 34.4042C57.9093 34.4733 57.406 34.5449 56.9621 34.6191C56.6611 35.8576 56.4344 36.9786 56.2818 37.9822C56.1487 38.9834 56.0569 39.9204 56.0065 40.7933C56.0038 40.9315 56.0011 41.0697 55.9984 41.2079C56.015 41.3437 56.0305 41.4699 56.0448 41.5863C56.152 42.4595 56.4647 43.081 56.9828 43.4507C57.5009 43.8204 58.0618 44.0568 58.6654 44.16C59.029 44.2335 59.2858 44.3202 59.4359 44.4199C59.6078 44.5367 59.7009 44.6533 59.7152 44.7697C59.7343 44.925 59.654 45.0727 59.4742 45.213C59.3139 45.3508 59.0979 45.4364 58.8262 45.4698Z" fill="black"/>
<path d="M63.0719 42.7621C62.9555 42.7764 62.8391 42.7907 62.7226 42.805C62.6038 42.7999 62.485 42.7948 62.3662 42.7897C61.5587 42.7903 60.8913 42.4882 60.364 41.8832C59.8537 41.2565 59.5473 40.5259 59.4449 39.6915C59.3782 39.1482 59.4146 38.5627 59.5542 37.9349C59.7108 37.2854 60.0007 36.6786 60.4239 36.1145C60.8446 35.531 61.3562 35.0447 61.9584 34.6556C62.5606 34.2665 63.1916 34.0315 63.8513 33.9505C64.1812 33.91 64.4965 33.9107 64.7971 33.9525C65.1171 33.992 65.2913 34.1282 65.3199 34.3611C65.339 34.5163 65.2707 34.6823 65.1152 34.8589C64.9766 35.0138 64.7679 35.0789 64.4891 35.054C64.4091 35.0441 64.2818 35.0499 64.1072 35.0714C63.6414 35.1285 63.1815 35.313 62.7274 35.6249C62.2732 35.9367 61.8783 36.3299 61.5427 36.8044C61.2046 37.2596 60.9792 37.7501 60.8665 38.2761C60.7784 38.6808 60.7581 39.0773 60.8058 39.4654C60.8796 40.0669 61.0786 40.5644 61.4027 40.958C61.7461 41.3491 62.1022 41.5221 62.4709 41.4768C62.5703 41.4843 62.6588 41.4833 62.7364 41.4738C62.8335 41.4618 62.9208 41.4511 62.9984 41.4416C63.8522 41.3368 64.6386 41.0038 65.3576 40.4428C66.0936 39.86 66.6405 39.2611 66.9983 38.6459C67.1713 38.2898 67.2811 37.9809 67.3277 37.7191C67.372 37.4379 67.3834 37.21 67.362 37.0354C67.3143 36.6473 67.1657 36.3996 66.9162 36.2924C66.6666 36.1851 66.446 36.1531 66.2544 36.1963C65.9487 36.2733 65.6539 36.3587 65.3699 36.4527C65.0836 36.5272 64.8397 36.6261 64.6382 36.7493C64.5265 36.8024 64.4416 36.8326 64.3834 36.8397C64.1893 36.8635 64.0149 36.8062 63.86 36.6676C63.7245 36.5267 63.646 36.3689 63.6246 36.1942C63.5865 35.8838 63.707 35.6622 63.9861 35.5294C64.2459 35.399 64.5553 35.2724 64.9145 35.1495C65.2736 35.0266 65.6449 34.9219 66.0282 34.8355C66.1034 34.8065 66.1702 34.7885 66.2284 34.7814C66.2866 34.7742 66.3545 34.7659 66.4321 34.7563C67.1307 34.6706 67.7002 34.8173 68.1407 35.1966C68.5788 35.5564 68.8348 36.0371 68.9087 36.6386C68.954 37.0073 68.9155 37.4158 68.7933 37.8642C68.671 38.3125 68.4397 38.7545 68.0993 39.1903C67.8048 39.6795 67.4133 40.1806 66.9248 40.6936C66.4362 41.2066 65.8714 41.66 65.2304 42.0539C64.587 42.4284 63.8675 42.6644 63.0719 42.7621Z" fill="black"/>
<path d="M69.5561 50.1205C69.2456 50.1587 68.9293 50.0695 68.6073 49.8529C68.2658 49.6388 68.0909 49.2565 68.0824 48.706C68.0592 48.1967 68.1117 47.5009 68.2397 46.6185C68.3701 45.7555 68.5468 44.7884 68.7698 43.7171C68.9928 42.6457 69.2511 41.5405 69.5445 40.4015C69.8356 39.243 70.1315 38.1233 70.4321 37.0425C70.7303 35.9422 71.0223 34.9511 71.3079 34.069C71.5912 33.1676 71.8365 32.4382 72.0438 31.8809C72.1803 31.549 72.4038 31.364 72.7143 31.3259C72.9083 31.3021 73.0816 31.3497 73.2341 31.4689C73.3842 31.5686 73.4748 31.7446 73.5058 31.9969C73.5248 32.1521 73.4976 32.4115 73.424 32.7751C73.3481 33.1193 73.2371 33.4185 73.0911 33.6728C72.8623 34.0554 72.6249 34.5278 72.3787 35.0898C72.1302 35.6325 71.9046 36.2018 71.7021 36.7979C72.5372 35.2575 73.4589 34.0216 74.4673 33.0902C75.4757 32.1588 76.6072 31.429 77.8621 30.9006C78.049 30.8186 78.2286 30.7572 78.4008 30.7163C78.5731 30.6755 78.7368 30.6455 78.8921 30.6264C79.6876 30.5288 80.2837 30.7313 80.6803 31.2341C81.0963 31.7346 81.3424 32.2953 81.4187 32.9162C81.5021 33.5954 81.4256 34.176 81.1893 34.658C80.7965 35.7896 80.2936 36.7475 79.6808 37.5319C79.0657 38.2968 78.378 38.9525 77.6178 39.4988C76.8746 40.0234 76.0891 40.5237 75.2612 40.9996C74.8581 41.246 74.4964 41.4283 74.176 41.5464C73.8727 41.6428 73.6046 41.7052 73.3718 41.7338C73.0225 41.7767 72.7704 41.7289 72.6155 41.5903C72.4606 41.4518 72.3712 41.2855 72.3474 41.0914C72.3141 40.8198 72.3607 40.558 72.4874 40.306C72.614 40.0541 72.7476 39.9392 72.8882 39.9614C73.0264 39.9641 73.1949 39.973 73.3938 39.9879C73.5926 40.0029 73.7987 39.9973 74.0121 39.9711C74.5167 39.9092 74.9328 39.7694 75.2607 39.5519C75.7877 39.1917 76.3293 38.7904 76.8856 38.3478C77.4612 37.9029 78.0044 37.3536 78.5151 36.7C79.0427 36.0246 79.4725 35.1938 79.8045 34.2076C79.8804 33.8634 79.8993 33.5361 79.8612 33.2256C79.8207 32.8958 79.6988 32.6251 79.4956 32.4137C79.3118 32.1999 79.0258 32.1168 78.6377 32.1645C77.9974 32.2431 77.2181 32.6343 76.3 33.3379C75.3794 34.0221 74.439 34.9452 73.4786 36.1071C72.5182 37.2689 71.6363 38.5886 70.8329 40.066C70.5394 41.2051 70.2727 42.3212 70.0326 43.4143C69.812 44.505 69.645 45.471 69.5316 46.3122C69.4206 47.1728 69.3695 47.7995 69.3784 48.1923C69.3852 48.4082 69.529 48.617 69.8099 48.8189C70.0907 49.0208 70.2454 49.2382 70.274 49.471C70.2931 49.6263 70.2139 49.7837 70.0366 49.9434C69.9491 50.0329 69.7889 50.0919 69.5561 50.1205Z" fill="black"/>
<path d="M82.089 42.1408C81.9531 42.1574 81.7967 42.1668 81.6197 42.1688C81.4621 42.1685 81.2935 42.1596 81.1141 42.1423C80.8547 42.115 80.706 41.9462 80.6678 41.6357C80.6464 41.4611 80.6953 41.2975 80.8144 41.145C80.9312 40.9731 81.1181 40.891 81.3751 40.8989C81.5909 40.8921 81.9246 40.8019 82.376 40.6282C82.8468 40.4523 83.3614 40.2315 83.9197 39.966C84.7353 39.5507 85.3934 39.135 85.8938 38.719C86.3943 38.303 86.7905 37.8407 87.0826 37.3322C87.3941 36.8212 87.5237 36.3522 87.4713 35.9253C87.4474 35.7313 87.386 35.5517 87.2869 35.3866C87.1855 35.2021 87.0173 35.0356 86.7824 34.8872C86.4168 34.6366 85.9857 34.4138 85.489 34.2187C84.9923 34.0236 84.5041 33.8177 84.0245 33.6008C83.5424 33.3645 83.1247 33.0908 82.7714 32.7797C82.435 32.4467 82.2347 32.0183 82.1704 31.4944C82.1132 31.0287 82.2293 30.6106 82.5187 30.2402C82.8057 29.8505 83.1495 29.5226 83.5502 29.2568C83.9679 28.9691 84.326 28.7577 84.6246 28.6226C84.9232 28.4874 85.2253 28.3814 85.531 28.3045C85.8343 28.2081 86.1412 28.1409 86.4517 28.1028C86.8204 28.0575 87.1756 28.0631 87.5174 28.1196C87.8762 28.1544 88.224 28.2594 88.5606 28.4347C88.7496 28.5297 88.8924 28.6501 88.9891 28.7958C89.0857 28.9415 89.1436 29.0919 89.1627 29.2472C89.1889 29.4606 89.1448 29.663 89.0304 29.8543C88.933 30.0239 88.7776 30.1217 88.5642 30.1479C88.4089 30.167 88.1957 30.1144 87.9243 29.9901L87.9534 29.9866C87.4884 29.7285 86.9745 29.634 86.4118 29.7031C86.1013 29.7412 85.8248 29.8146 85.582 29.9232C85.1864 30.0703 84.8041 30.2452 84.4351 30.4481C84.0661 30.651 83.8533 30.9233 83.7968 31.2651C83.7695 31.5245 83.9496 31.788 84.337 32.0556C84.7415 32.3014 85.2344 32.5462 85.8158 32.79C86.3949 33.0143 86.9352 33.2434 87.4366 33.4773C87.9139 33.6748 88.3146 33.9703 88.6386 34.3638C88.9627 34.7574 89.1545 35.1967 89.2141 35.6818C89.288 36.2833 89.1363 36.8929 88.7591 37.5104C88.1483 38.4718 87.4846 39.2426 86.768 39.8231C86.0708 40.4011 85.2659 40.9037 84.3532 41.3309C83.8507 41.5699 83.4296 41.7496 83.0898 41.8701C82.7525 42.0101 82.4188 42.1003 82.089 42.1408Z" fill="black"/>
<path d="M108.856 36.7564C108.095 36.8105 107.46 36.6915 106.951 36.3994C106.442 36.1073 106.009 35.7075 105.651 35.1999C105.311 34.6705 104.994 34.0988 104.702 33.4846C104.43 32.8681 104.14 32.2734 103.833 31.7004C103.644 31.9207 103.386 32.2281 103.06 32.6226C102.751 32.9954 102.418 33.4105 102.061 33.8681C101.703 34.3256 101.363 34.7613 101.039 35.1753C100.716 35.5893 100.453 35.9366 100.251 36.2175C99.9328 36.6703 99.5573 37.0611 99.1249 37.3899C98.712 37.7164 98.3308 37.901 97.9816 37.9439C97.7099 37.9773 97.4651 37.9089 97.2473 37.7386C97.0488 37.566 96.9222 37.2566 96.8674 36.8103C96.8555 36.7133 96.8435 36.6162 96.8316 36.5192C96.8391 36.4198 96.8454 36.3107 96.8505 36.1919C96.8941 35.1032 96.9519 34.2097 97.0237 33.5115C97.0956 32.8133 97.1975 32.2 97.3296 31.6717C97.4787 31.1216 97.6558 30.5582 97.8607 29.9815C97.9972 29.6496 98.2207 29.4645 98.5312 29.4264C98.7059 29.405 98.8694 29.4538 99.0219 29.573C99.1721 29.6727 99.2626 29.8487 99.2936 30.101C99.3103 30.2368 99.2842 30.5059 99.2154 30.9083C99.1467 31.3107 99.0502 31.6476 98.9259 31.9189C98.77 32.2532 98.5929 32.8166 98.3948 33.6091C98.216 34.3992 98.1632 35.2527 98.2364 36.1695C98.7927 35.7269 99.3529 35.1559 99.917 34.4563C100.479 33.7373 101.051 33.0269 101.635 32.3249C102.238 31.6206 102.851 31.0824 103.475 30.7103C103.638 30.5918 103.803 30.4928 103.971 30.4131C104.136 30.314 104.286 30.2562 104.422 30.2395C104.597 30.2181 104.741 30.2693 104.854 30.3932C104.988 30.5147 105.084 30.7393 105.144 31.0668C105.209 31.4331 105.333 31.8807 105.516 32.4098C105.716 32.917 105.965 33.4183 106.262 33.9136C106.576 34.3872 106.929 34.7771 107.321 35.0835C107.733 35.3875 108.191 35.5086 108.695 35.4466C109.084 35.399 109.445 35.2167 109.781 34.8997C110.116 34.5828 110.404 34.2027 110.645 33.7595C110.884 33.2969 111.035 32.8449 111.099 32.4038C111.153 32.0426 111.175 31.7346 111.163 31.48C111.171 31.223 111.165 31.0168 111.146 30.8616C111.106 30.5317 111.038 30.3036 110.944 30.1773C110.869 30.0487 110.821 29.897 110.799 29.7224C110.764 29.4313 110.824 29.1974 110.979 29.0207C111.135 28.8441 111.31 28.7438 111.504 28.72C111.775 28.6866 112.044 28.7915 112.31 29.0346C112.594 29.2558 112.771 29.6575 112.842 30.2397C112.902 30.7248 112.872 31.28 112.752 31.9054C112.595 32.7126 112.306 33.4867 111.884 34.2278C111.461 34.9495 110.982 35.5401 110.447 35.9997C109.913 36.4593 109.383 36.7115 108.856 36.7564Z" fill="black"/>
<path d="M121.807 36.8208C121.38 36.8732 121.057 36.7258 120.837 36.3786C120.617 36.0313 120.476 35.6054 120.414 35.1009C120.338 34.48 120.353 33.7986 120.459 33.0568C120.565 32.315 120.687 31.7091 120.826 31.2389C121.019 30.5652 121.164 29.9763 121.259 29.4721C121.355 28.9679 121.385 28.5703 121.349 28.2793C121.306 27.93 121.178 27.7684 120.965 27.7947C120.827 27.7919 120.556 27.9138 120.153 28.1603C119.75 28.4067 119.336 28.7235 118.91 29.1105C118.643 29.3403 118.291 29.679 117.853 30.1267C117.414 30.5549 116.959 31.0244 116.49 31.535C116.021 32.0456 115.609 32.5394 115.254 33.0164C114.779 33.6458 114.475 34.215 114.341 34.7239C114.26 35.0293 114.084 35.1987 113.812 35.232C113.637 35.2535 113.482 35.1937 113.347 35.0528C113.209 34.8924 113.138 34.6352 113.134 34.2812C113.152 33.6289 113.24 32.8204 113.398 31.8556C113.574 30.8885 113.781 29.8486 114.019 28.7361C114.274 27.6018 114.549 26.4748 114.845 25.3552C115.138 24.2161 115.432 23.1558 115.725 22.1744C116.037 21.1906 116.32 20.3679 116.574 19.7065C116.71 19.3746 116.934 19.1895 117.244 19.1514C117.419 19.13 117.583 19.1788 117.735 19.298C117.885 19.3977 117.975 19.564 118.003 19.7969C118.013 19.8745 118.004 20.043 117.977 20.3024C117.969 20.5595 117.933 20.8298 117.869 21.1133C117.825 21.3945 117.756 21.6296 117.661 21.8185C117.505 22.1528 117.311 22.5016 117.08 22.8648C116.849 23.2281 116.654 23.6459 116.495 24.1184C116.153 25.1847 115.881 26.0946 115.678 26.8483C115.473 27.5826 115.316 28.2321 115.208 28.7969C115.12 29.3593 115.045 29.8708 114.983 30.3314C114.921 30.792 114.853 31.2732 114.776 31.775C114.901 31.5037 115.021 31.282 115.138 31.1101C115.255 30.9382 115.373 30.776 115.492 30.6235C115.832 30.1878 116.249 29.7328 116.742 29.2586C117.236 28.7844 117.751 28.3272 118.288 27.887C118.844 27.4445 119.371 27.0843 119.868 26.8065C120.383 26.507 120.806 26.3369 121.135 26.2964C121.504 26.2512 121.859 26.3356 122.201 26.5497C122.54 26.7445 122.751 27.1814 122.834 27.8606C122.882 28.2487 122.872 28.7324 122.806 29.3118C122.756 29.8694 122.611 30.5372 122.372 31.3151C122.181 32.0082 122.026 32.7462 121.905 33.5292C121.802 34.2904 121.748 34.8977 121.745 35.3512C121.975 35.6184 122.111 35.9267 122.154 36.2759C122.194 36.6058 122.079 36.7874 121.807 36.8208Z" fill="black"/>
<path d="M127.417 37.107C127.261 37.1261 127.074 37.1196 126.853 37.0876C125.622 36.8449 124.68 36.3105 124.027 35.4846C123.371 34.6393 122.982 33.7122 122.858 32.7031C122.839 32.5479 122.821 32.4024 122.804 32.2665C122.805 32.1089 122.806 31.961 122.809 31.8228C122.848 30.6953 123.096 29.6701 123.554 28.7472C124.031 27.8219 124.595 27.0436 125.247 26.4121C125.915 25.7588 126.54 25.3176 127.123 25.0885C127.499 24.9439 127.878 24.8186 128.259 24.7127C128.637 24.5875 129.011 24.5022 129.379 24.4569C130.311 24.3426 131.131 24.4486 131.841 24.7751C132.551 25.1016 132.963 25.7305 133.077 26.662C133.142 27.1859 133.035 27.6815 132.758 28.1489C132.5 28.614 132.147 29.0315 131.7 29.4015C131.27 29.7498 130.843 30.0386 130.418 30.2681C129.772 30.6231 129.021 30.9222 128.164 31.1652C127.327 31.4059 126.53 31.5727 125.774 31.6656C125.288 31.7251 124.839 31.7508 124.424 31.7427L124.428 31.7718C124.437 31.8494 124.437 31.9282 124.427 32.0082C124.415 32.0688 124.413 32.1379 124.423 32.2155C124.413 32.2955 124.413 32.3743 124.422 32.4519C124.43 32.5102 124.437 32.5684 124.444 32.6266C124.518 33.2281 124.7 33.7474 124.99 34.1846C125.297 34.5999 125.635 34.9523 126.006 35.2416C126.374 35.5116 126.676 35.7305 126.914 35.8983C127.284 36.0301 127.547 36.1652 127.702 36.3038C127.879 36.4594 127.973 36.5857 127.985 36.6827C128.014 36.9156 127.824 37.057 127.417 37.107ZM126.399 30.2593C126.981 30.1878 127.587 30.0739 128.218 29.9177C128.847 29.7421 129.417 29.4948 129.929 29.1758C130.33 28.9099 130.693 28.5797 131.019 28.1852C131.342 27.7712 131.473 27.312 131.411 26.8075C131.364 26.4194 131.173 26.1474 130.838 25.9914C130.504 25.8355 130.055 25.7921 129.493 25.8612C128.852 25.9398 128.168 26.142 127.44 26.4678C127.178 26.5788 126.861 26.8048 126.489 27.1459C126.137 27.4846 125.788 27.9313 125.442 28.4858C125.094 29.0209 124.826 29.6448 124.638 30.3573C124.873 30.3481 125.139 30.345 125.435 30.3481C125.747 30.3294 126.069 30.2998 126.399 30.2593Z" fill="black"/>
<path d="M143.576 33.6751C143.285 33.7109 142.993 33.5793 142.701 33.2804C142.406 32.9621 142.226 32.541 142.161 32.0171C142.121 31.6872 142.099 31.2664 142.095 30.7547C142.091 30.2431 142.117 29.7278 142.171 29.209C142.223 28.6708 142.304 28.2078 142.414 27.8201C142.639 27.0834 142.726 26.5113 142.676 26.1038C142.614 25.5993 142.351 25.3756 141.885 25.4328C141.827 25.44 141.759 25.4483 141.681 25.4578C141.603 25.4674 141.528 25.4963 141.455 25.5446C141.082 25.7087 140.59 26.035 139.98 26.5235C139.368 26.9926 138.725 27.5344 138.052 28.1488C137.399 28.7609 136.784 29.3682 136.208 29.9708C135.632 30.5733 135.193 31.0901 134.891 31.5211C134.473 32.1239 134.204 32.5805 134.085 32.8906C133.965 33.2007 133.905 33.3558 133.905 33.3558C133.776 33.5883 133.615 33.7165 133.421 33.7403C133.246 33.7617 133.09 33.6923 132.952 33.5319C132.812 33.3522 132.752 33.1035 132.772 32.7859C132.848 31.1613 132.972 29.7673 133.145 28.6037C133.336 27.4378 133.596 26.4211 133.922 25.5537C134.059 25.2217 134.282 25.0367 134.593 24.9986C134.767 24.9772 134.931 25.026 135.084 25.1452C135.234 25.2449 135.324 25.4209 135.355 25.6732C135.372 25.809 135.346 26.0781 135.277 26.4805C135.228 26.8805 135.141 27.2162 135.017 27.4875C134.861 27.8218 134.74 28.201 134.654 28.6252C134.585 29.0276 134.506 29.5888 134.418 30.3088C134.591 29.9527 134.746 29.6972 134.885 29.5423C135.021 29.368 135.2 29.1393 135.421 28.856C136.119 27.9628 136.972 27.1292 137.98 26.3555C139.005 25.5599 139.995 24.877 140.949 24.3068C141.15 24.1836 141.41 24.0532 141.728 23.9157C142.046 23.7782 142.37 23.6892 142.7 23.6486C143.088 23.601 143.45 23.6648 143.787 23.8402C144.124 24.0155 144.329 24.4039 144.403 25.0055C144.441 25.3159 144.429 25.7015 144.368 26.1621C144.325 26.6203 144.215 27.1656 144.037 27.7982C143.814 28.5542 143.702 29.3263 143.701 30.1144C143.718 30.9001 143.76 31.5647 143.827 32.108C143.846 32.2632 143.865 32.4185 143.884 32.5737C143.92 32.7071 143.946 32.8321 143.96 32.9485C143.984 33.1426 143.974 33.3014 143.93 33.4249C143.888 33.5679 143.77 33.6513 143.576 33.6751Z" fill="black"/>
<path d="M163.397 30.0596C162.636 30.1137 162.001 29.9947 161.492 29.7026C160.983 29.4105 160.55 29.0107 160.192 28.5031C159.852 27.9737 159.535 27.402 159.243 26.7878C158.971 26.1713 158.681 25.5766 158.374 25.0036C158.185 25.2239 157.927 25.5313 157.601 25.9258C157.292 26.2986 156.959 26.7138 156.602 27.1713C156.244 27.6288 155.904 28.0645 155.58 28.4785C155.257 28.8925 154.994 29.2399 154.792 29.5207C154.474 29.9735 154.098 30.3643 153.666 30.6931C153.253 31.0196 152.872 31.2043 152.523 31.2471C152.251 31.2805 152.006 31.2121 151.788 31.0418C151.59 30.8692 151.463 30.5598 151.408 30.1135C151.396 30.0165 151.385 29.9194 151.373 29.8224C151.38 29.723 151.386 29.6139 151.392 29.4951C151.435 28.4064 151.493 27.513 151.565 26.8147C151.637 26.1165 151.739 25.5032 151.871 24.9749C152.02 24.4248 152.197 23.8614 152.402 23.2847C152.538 22.9528 152.762 22.7678 153.072 22.7296C153.247 22.7082 153.41 22.757 153.563 22.8762C153.713 22.9759 153.804 23.1519 153.835 23.4042C153.851 23.54 153.825 23.8091 153.756 24.2115C153.688 24.6139 153.591 24.9508 153.467 25.2221C153.311 25.5564 153.134 26.1198 152.936 26.9123C152.757 27.7024 152.704 28.5559 152.777 29.4727C153.334 29.0301 153.894 28.4591 154.458 27.7595C155.02 27.0405 155.592 26.3301 156.176 25.6281C156.779 24.9238 157.392 24.3856 158.016 24.0135C158.179 23.895 158.344 23.796 158.512 23.7163C158.677 23.6172 158.827 23.5594 158.963 23.5427C159.138 23.5213 159.282 23.5725 159.395 23.6964C159.529 23.818 159.625 24.0425 159.685 24.37C159.75 24.7363 159.874 25.1839 160.057 25.713C160.257 26.2202 160.506 26.7215 160.803 27.2168C161.117 27.6904 161.47 28.0803 161.862 28.3867C162.274 28.6907 162.732 28.8118 163.236 28.7498C163.624 28.7022 163.986 28.5199 164.322 28.2029C164.657 27.886 164.945 27.5059 165.186 27.0627C165.425 26.6001 165.576 26.1482 165.64 25.707C165.694 25.3458 165.715 25.0378 165.704 24.7832C165.712 24.5262 165.706 24.32 165.687 24.1648C165.647 23.8349 165.579 23.6068 165.485 23.4805C165.41 23.3519 165.362 23.2002 165.34 23.0256C165.305 22.7345 165.365 22.5006 165.52 22.3239C165.676 22.1473 165.851 22.047 166.045 22.0232C166.316 21.9898 166.585 22.0947 166.851 22.3378C167.135 22.559 167.312 22.9608 167.383 23.5429C167.443 24.028 167.413 24.5832 167.293 25.2086C167.136 26.0158 166.847 26.7899 166.425 27.531C166.002 28.2527 165.523 28.8433 164.988 29.3029C164.454 29.7625 163.924 30.0147 163.397 30.0596Z" fill="black"/>
<path d="M172.391 31.5849C172.236 31.6039 172.048 31.5975 171.827 31.5655C170.596 31.3227 169.654 30.7884 169.001 29.9625C168.346 29.1172 167.956 28.19 167.832 27.181C167.813 27.0257 167.795 26.8802 167.779 26.7444C167.779 26.5868 167.78 26.4388 167.783 26.3006C167.822 25.1731 168.07 24.1479 168.528 23.225C169.006 22.2998 169.57 21.5214 170.221 20.8899C170.889 20.2366 171.515 19.7955 172.097 19.5664C172.473 19.4217 172.852 19.2964 173.233 19.1906C173.612 19.0653 173.985 18.98 174.354 18.9348C175.285 18.8204 176.106 18.9264 176.816 19.2529C177.525 19.5794 177.937 20.2084 178.052 21.1398C178.116 21.6637 178.01 22.1594 177.732 22.6268C177.474 23.0918 177.122 23.5093 176.675 23.8794C176.245 24.2276 175.817 24.5165 175.392 24.7459C174.747 25.1009 173.995 25.4 173.139 25.643C172.302 25.8837 171.505 26.0505 170.748 26.1434C170.263 26.203 169.813 26.2287 169.398 26.2205L169.402 26.2496C169.411 26.3272 169.411 26.406 169.401 26.486C169.389 26.5466 169.388 26.6157 169.397 26.6933C169.387 26.7734 169.387 26.8522 169.397 26.9298C169.404 26.988 169.411 27.0462 169.418 27.1044C169.492 27.706 169.674 28.2253 169.964 28.6624C170.271 29.0777 170.61 29.4301 170.98 29.7195C171.348 29.9894 171.651 30.2083 171.888 30.3762C172.259 30.5079 172.522 30.6431 172.677 30.7816C172.853 30.9372 172.948 31.0635 172.959 31.1605C172.988 31.3934 172.799 31.5348 172.391 31.5849ZM171.373 24.7371C171.955 24.6656 172.562 24.5518 173.193 24.3955C173.821 24.2199 174.391 23.9726 174.904 23.6536C175.304 23.3877 175.668 23.0575 175.993 22.663C176.317 22.249 176.448 21.7898 176.386 21.2853C176.338 20.8972 176.147 20.6252 175.813 20.4693C175.478 20.3133 175.03 20.2699 174.467 20.339C173.827 20.4176 173.143 20.6198 172.414 20.9456C172.152 21.0566 171.835 21.2826 171.464 21.6237C171.111 21.9625 170.762 22.4091 170.417 22.9636C170.069 23.4988 169.801 24.1226 169.612 24.8351C169.848 24.8259 170.113 24.8229 170.409 24.826C170.722 24.8072 171.043 24.7776 171.373 24.7371Z" fill="black"/>
<path d="M188.376 27.288C187.833 27.3548 187.285 27.3038 186.733 27.1353C186.199 26.9644 185.743 26.6955 185.363 26.3285C184.983 25.9615 184.761 25.516 184.697 24.9921C184.601 24.2159 184.722 23.5118 185.058 22.8796C185.394 22.2474 185.847 21.6895 186.418 21.2057C187.008 20.7196 187.62 20.3293 188.254 20.0349C188.868 19.7428 189.553 19.5503 190.31 19.4574C191.106 19.3597 191.89 19.4111 192.663 19.6116C193.453 19.7904 194.045 20.2003 194.439 20.8413C194.533 20.3177 194.588 19.8086 194.606 19.314C194.622 18.7999 194.607 18.3586 194.562 17.9899C194.486 17.3689 194.301 16.909 194.008 16.6101C193.735 16.3088 193.288 16.1963 192.667 16.2725C192.415 16.3035 192.136 16.4363 191.829 16.6708C191.521 16.886 191.229 17.1581 190.955 17.4873C190.853 17.618 190.775 17.7064 190.721 17.7523C190.687 17.7959 190.583 17.8284 190.408 17.8499C190.214 17.8737 190.051 17.8248 189.918 17.7033C189.804 17.5794 189.736 17.4301 189.715 17.2555C189.686 17.0226 189.749 16.8081 189.902 16.6121C190.055 16.416 190.225 16.1981 190.412 15.9584C190.6 15.7188 190.849 15.5011 191.16 15.3054C191.487 15.0878 191.913 14.9469 192.437 14.8826C193.524 14.7491 194.35 14.9037 194.917 15.3463C195.483 15.7889 195.837 16.5826 195.977 17.7274C196.047 18.2902 196.04 18.8818 195.959 19.5024C195.897 20.1206 195.811 20.7812 195.7 21.4842C195.636 21.9254 195.531 22.4308 195.384 23.0003C195.254 23.5481 195.066 24.103 194.82 24.665C194.574 25.227 194.25 25.7198 193.849 26.1433C193.728 26.2764 193.589 26.3525 193.434 26.3715C193.24 26.3954 193.067 26.3477 192.914 26.2286C192.762 26.1094 192.675 25.9625 192.653 25.7879C192.632 25.6132 192.698 25.4279 192.851 25.2318C193.043 25.0309 193.232 24.7222 193.417 24.3055C193.622 23.8864 193.795 23.3727 193.937 22.7644C193.781 21.9759 193.331 21.4403 192.587 21.1574C191.863 20.8721 191.083 20.7806 190.249 20.8831C189.764 20.9426 189.305 21.058 188.873 21.2293C188.405 21.4247 187.948 21.7171 187.504 22.1065C187.057 22.4766 186.694 22.8953 186.417 23.3627C186.159 23.8277 186.059 24.2931 186.116 24.7588C186.161 25.1275 186.386 25.4347 186.79 25.6805C187.214 25.9239 187.688 26.0135 188.212 25.9491C188.658 25.8943 189.006 25.8417 189.256 25.7914C189.525 25.7386 189.771 25.6494 189.991 25.5238C190.229 25.3764 190.525 25.1333 190.877 24.7946C191.037 24.6568 191.176 24.5807 191.292 24.5664C191.447 24.5473 191.579 24.5803 191.688 24.6654C191.797 24.7506 191.861 24.8707 191.88 25.026C191.907 25.2394 191.823 25.4369 191.628 25.6183C191.035 26.2426 190.496 26.6634 190.01 26.8806C189.542 27.076 188.997 27.2118 188.376 27.288Z" fill="black"/>
<path d="M198.007 26.2828C197.833 26.3042 197.659 26.2566 197.487 26.1398C197.333 26.0012 197.234 25.7573 197.191 25.408C197.181 25.3304 197.172 25.2528 197.162 25.1752C197.17 25.0758 197.177 24.9764 197.185 24.877C197.254 24.0017 197.367 23.072 197.522 22.0878C197.696 21.1013 197.878 20.1729 198.066 19.3028C198.252 18.4133 198.384 17.7176 198.46 17.2158C198.519 16.8934 198.627 16.6536 198.785 16.4963C198.963 16.3367 199.148 16.2449 199.342 16.2211C199.556 16.1949 199.739 16.2414 199.891 16.3605C200.061 16.4579 200.159 16.6133 200.185 16.8267C200.206 17.0014 200.172 17.2026 200.082 17.4303C199.991 17.6581 199.888 18.0155 199.77 18.5027C199.672 18.9874 199.574 19.4722 199.476 19.957C199.378 20.4417 199.285 20.8077 199.197 21.0548C199.795 20.3117 200.34 19.6933 200.831 19.1997C201.322 18.7061 201.988 18.2007 202.831 17.6837C203.195 17.442 203.688 17.283 204.309 17.2067C204.755 17.1519 205.212 17.1845 205.68 17.3043C206.148 17.4242 206.554 17.6894 206.9 18.0999C207.246 18.5105 207.469 19.1233 207.569 19.9382C207.607 20.2487 207.452 20.4254 207.102 20.4683C206.967 20.485 206.814 20.4446 206.644 20.3473C206.494 20.2475 206.354 20.0678 206.224 19.808C206.033 19.3784 205.777 19.0553 205.455 18.8388C205.15 18.6005 204.774 18.5087 204.328 18.5635C204.056 18.5969 203.753 18.6932 203.418 18.8525C203.007 19.0408 202.506 19.3683 201.913 19.835C201.318 20.2823 200.716 20.829 200.106 21.4751C199.515 22.1189 198.982 22.8343 198.508 23.6213C198.524 23.7571 198.514 23.916 198.478 24.0977C198.46 24.2771 198.465 24.4736 198.491 24.687C198.496 24.7258 198.527 24.8205 198.585 24.9709C198.643 25.1214 198.681 25.2743 198.7 25.4295C198.726 25.643 198.662 25.838 198.506 26.0147C198.368 26.1696 198.201 26.259 198.007 26.2828Z" fill="black"/>
<path d="M212.135 26.7049C211.98 26.7239 211.792 26.7175 211.572 26.6855C210.34 26.4427 209.398 25.9084 208.745 25.0825C208.09 24.2372 207.7 23.31 207.577 22.301C207.557 22.1458 207.54 22.0002 207.523 21.8644C207.523 21.7068 207.525 21.5589 207.528 21.4206C207.566 20.2931 207.815 19.2679 208.273 18.3451C208.75 17.4198 209.314 16.6414 209.965 16.0099C210.634 15.3567 211.259 14.9155 211.842 14.6864C212.218 14.5417 212.596 14.4164 212.977 14.3106C213.356 14.1853 213.729 14.1 214.098 14.0548C215.03 13.9404 215.85 14.0465 216.56 14.3729C217.27 14.6994 217.682 15.3284 217.796 16.2598C217.86 16.7837 217.754 17.2794 217.476 17.7468C217.218 18.2118 216.866 18.6293 216.419 18.9994C215.989 19.3476 215.562 19.6365 215.137 19.8659C214.491 20.221 213.74 20.52 212.883 20.7631C212.046 21.0037 211.249 21.1705 210.492 21.2634C210.007 21.323 209.557 21.3487 209.143 21.3405L209.146 21.3696C209.156 21.4472 209.156 21.526 209.146 21.606C209.133 21.6666 209.132 21.7357 209.142 21.8134C209.132 21.8934 209.132 21.9722 209.141 22.0498C209.148 22.108 209.155 22.1662 209.163 22.2244C209.236 22.826 209.418 23.3453 209.708 23.7824C210.015 24.1977 210.354 24.5501 210.725 24.8395C211.093 25.1094 211.395 25.3283 211.633 25.4962C212.003 25.6279 212.266 25.7631 212.421 25.9016C212.598 26.0572 212.692 26.1835 212.704 26.2805C212.732 26.5134 212.543 26.6548 212.135 26.7049ZM211.117 19.8571C211.7 19.7857 212.306 19.6718 212.937 19.5156C213.565 19.3399 214.136 19.0926 214.648 18.7736C215.049 18.5078 215.412 18.1776 215.738 17.783C216.061 17.369 216.192 16.9098 216.13 16.4053C216.082 16.0172 215.891 15.7452 215.557 15.5893C215.223 15.4334 214.774 15.3899 214.211 15.459C213.571 15.5377 212.887 15.7399 212.159 16.0656C211.897 16.1766 211.58 16.4026 211.208 16.7437C210.855 17.0825 210.507 17.5291 210.161 18.0836C209.813 18.6188 209.545 19.2426 209.357 19.9551C209.592 19.9459 209.857 19.9429 210.153 19.946C210.466 19.9272 210.788 19.8976 211.117 19.8571Z" fill="black"/>
<path d="M229.502 24.5135C229.424 24.523 229.355 24.5216 229.295 24.5094C229.236 24.5165 229.167 24.5152 229.087 24.5053C228.527 24.4362 227.967 24.2882 227.408 24.0615C226.867 23.8324 226.398 23.4567 225.999 22.9345C225.598 22.3928 225.34 21.6563 225.225 20.7249C225.18 20.3562 225.16 19.9549 225.166 19.5208C225.18 18.8297 225.257 18.0127 225.397 17.0697C225.554 16.105 225.755 15.0954 226 14.0411L225.971 14.0447C225.855 14.059 225.75 14.0915 225.658 14.1422C225.566 14.1929 225.471 14.2243 225.374 14.2362C225.064 14.2743 224.886 14.109 224.84 13.7403C224.814 13.5269 224.877 13.3124 225.027 13.0969C225.178 12.8814 225.331 12.7642 225.486 12.7451L226.356 12.6088C226.686 11.2879 227.025 10.035 227.372 8.84995C227.736 7.64314 228.052 6.68841 228.32 5.98577C228.396 5.79922 228.516 5.65641 228.681 5.55735C228.863 5.4365 229.051 5.36417 229.245 5.34034C229.439 5.31651 229.61 5.34477 229.758 5.42512C229.923 5.48368 230.015 5.59057 230.034 5.74581C230.039 5.78462 230.029 5.86462 230.004 5.98581L228.682 10.1368C228.553 10.5269 228.431 10.8965 228.316 11.2454C228.221 11.5919 228.116 11.9397 228.001 12.2886C228.389 12.241 228.788 12.2018 229.198 12.1712C229.627 12.1382 230.107 12.1186 230.638 12.1125C230.738 12.12 230.843 12.176 230.954 12.2805C231.066 12.385 231.13 12.5052 231.146 12.641C231.158 12.7381 231.131 12.8399 231.066 12.9464C231.017 13.0312 230.887 13.0964 230.676 13.142C230.218 13.2574 229.708 13.3593 229.148 13.4478C228.585 13.5169 228.082 13.5886 227.638 13.6628C227.337 14.9012 227.11 16.0223 226.957 17.0258C226.824 18.027 226.733 18.9641 226.682 19.8369C226.679 19.9751 226.677 20.1134 226.674 20.2516C226.691 20.3874 226.706 20.5135 226.72 20.63C226.828 21.5032 227.14 22.1246 227.658 22.4943C228.177 22.8641 228.737 23.1005 229.341 23.2037C229.705 23.2772 229.961 23.3638 230.112 23.4636C230.284 23.5804 230.377 23.697 230.391 23.8134C230.41 23.9686 230.33 24.1164 230.15 24.2566C229.99 24.3945 229.774 24.4801 229.502 24.5135Z" fill="black"/>
<path d="M233.748 21.8058C233.631 21.8201 233.515 21.8344 233.398 21.8487C233.279 21.8436 233.161 21.8384 233.042 21.8333C232.234 21.834 231.567 21.5319 231.04 20.9269C230.529 20.3002 230.223 19.5696 230.121 18.7352C230.054 18.1919 230.09 17.6063 230.23 16.9786C230.386 16.3291 230.676 15.7223 231.1 15.1582C231.52 14.5747 232.032 14.0884 232.634 13.6993C233.236 13.3102 233.867 13.0751 234.527 12.9941C234.857 12.9536 235.172 12.9543 235.473 12.9962C235.793 13.0357 235.967 13.1719 235.996 13.4047C236.015 13.56 235.946 13.7259 235.791 13.9026C235.652 14.0575 235.444 14.1225 235.165 14.0977C235.085 14.0878 234.957 14.0936 234.783 14.115C234.317 14.1722 233.857 14.3567 233.403 14.6685C232.949 14.9803 232.554 15.3735 232.218 15.8481C231.88 16.3032 231.655 16.7938 231.542 17.3197C231.454 17.7245 231.434 18.1209 231.481 18.509C231.555 19.1106 231.754 19.6081 232.078 20.0016C232.422 20.3928 232.778 20.5657 233.147 20.5205C233.246 20.528 233.334 20.527 233.412 20.5174C233.509 20.5055 233.596 20.4948 233.674 20.4853C234.528 20.3804 235.314 20.0475 236.033 19.4865C236.769 18.9037 237.316 18.3047 237.674 17.6896C237.847 17.3335 237.957 17.0246 238.003 16.7628C238.048 16.4816 238.059 16.2537 238.038 16.079C237.99 15.6909 237.841 15.4433 237.592 15.336C237.342 15.2288 237.122 15.1968 236.93 15.24C236.624 15.3169 236.329 15.4024 236.046 15.4963C235.759 15.5709 235.515 15.6698 235.314 15.793C235.202 15.8461 235.117 15.8762 235.059 15.8834C234.865 15.9072 234.691 15.8498 234.536 15.7113C234.4 15.5703 234.322 15.4125 234.3 15.2379C234.262 14.9274 234.383 14.7058 234.662 14.5731C234.922 14.4427 235.231 14.316 235.59 14.1932C235.949 14.0703 236.321 13.9656 236.704 13.8791C236.779 13.8502 236.846 13.8322 236.904 13.825C236.962 13.8179 237.03 13.8095 237.108 13.8C237.806 13.7142 238.376 13.861 238.816 14.2402C239.254 14.6 239.51 15.0807 239.584 15.6823C239.63 16.051 239.591 16.4595 239.469 16.9078C239.347 17.3562 239.115 17.7982 238.775 18.2339C238.48 18.7231 238.089 19.2242 237.6 19.7373C237.112 20.2503 236.547 20.7037 235.906 21.0976C235.263 21.472 234.543 21.7081 233.748 21.8058Z" fill="black"/>
<path d="M245.913 29.2348C245.661 29.2658 245.406 29.2773 245.149 29.2695C244.912 29.2593 244.673 29.2394 244.433 29.2097C244.011 29.1433 243.684 28.9668 243.452 28.6802C243.239 28.3912 243.112 28.0817 243.072 27.7518C243.039 27.4802 243.08 27.2584 243.197 27.0865C243.316 26.9339 243.473 26.8458 243.667 26.822C243.725 26.8148 243.774 26.8089 243.812 26.8041C243.873 26.8163 243.934 26.8286 243.994 26.8409C244.137 26.8824 244.315 27.0477 244.528 27.3367C244.76 27.6233 244.979 27.8033 245.185 27.8765C245.246 27.8887 245.324 27.8889 245.421 27.877C245.751 27.8365 246.102 27.6457 246.474 27.3046C246.865 26.9611 247.152 26.6501 247.334 26.3716C248.052 25.3184 248.577 24.2986 248.909 23.3124C249.241 22.3262 249.479 21.381 249.624 20.4768C249.789 19.5703 249.95 18.7231 250.11 17.9354C249.731 18.3759 249.326 18.7703 248.896 19.1185C248.464 19.4474 247.928 19.7396 247.29 19.9953C246.671 20.2485 245.845 20.4977 244.811 20.7428C244.678 20.7789 244.553 20.804 244.437 20.8183C244.32 20.8326 244.204 20.8469 244.087 20.8612C243.175 20.9732 242.387 20.8927 241.723 20.6196C241.057 20.3272 240.534 19.9187 240.155 19.3941C239.775 18.8695 239.546 18.287 239.468 17.6466C239.351 16.6958 239.554 15.7845 240.077 14.9127C240.389 14.4017 240.794 13.8497 241.292 13.2567C241.788 12.6443 242.376 12.0599 243.056 11.5037C243.756 10.945 244.544 10.4642 245.42 10.0612C246.316 9.65573 247.3 9.4069 248.372 9.31466C248.915 9.24795 249.315 9.29732 249.572 9.46278C249.845 9.60644 250.028 9.81054 250.12 10.0751C250.228 10.3178 250.299 10.575 250.333 10.8466C250.349 11.1401 250.25 11.2999 250.037 11.3261C249.862 11.3476 249.641 11.3059 249.372 11.201C249.103 11.0961 248.806 11.0046 248.481 10.9263C247.346 10.9868 246.298 11.2731 245.336 11.7851C244.394 12.2947 243.572 12.8979 242.87 13.5948C242.185 14.2698 241.664 14.9246 241.309 15.5592C241.017 16.0678 240.909 16.6325 240.985 17.2535C241.042 17.7192 241.215 18.1609 241.502 18.5786C241.807 18.9745 242.228 19.2773 242.766 19.4871C243.302 19.6774 243.944 19.697 244.694 19.5458C245.616 19.3538 246.38 19.0827 246.987 18.7324C247.594 18.3821 248.115 17.9735 248.55 17.5064C248.985 17.0393 249.377 16.5382 249.725 16.0031C250.073 15.4679 250.45 14.9292 250.856 14.3869C250.958 14.2562 251.096 14.1801 251.271 14.1587C251.426 14.1396 251.58 14.1897 251.733 14.3088C251.883 14.4086 251.972 14.5749 252.001 14.8077C252.008 14.8659 252.016 14.9339 252.026 15.0115C252.033 15.0697 252.022 15.14 251.993 15.2224C251.916 15.7242 251.813 16.4065 251.683 17.2695C251.55 18.1131 251.388 19.0391 251.196 20.0474C251.022 21.034 250.796 21.9974 250.517 22.9376C250.222 23.8997 249.836 24.8531 249.362 25.7977C248.906 26.74 248.417 27.5683 247.894 28.2825L247.923 28.2789C247.741 28.5574 247.461 28.769 247.085 28.9136C246.731 29.0753 246.34 29.1824 245.913 29.2348Z" fill="black"/>
<path d="M257.78 21.1005C257.624 21.1195 257.436 21.1131 257.216 21.0811C255.984 20.8383 255.042 20.304 254.389 19.4781C253.734 18.6328 253.345 17.7056 253.221 16.6966C253.202 16.5414 253.184 16.3958 253.167 16.26C253.167 16.1024 253.169 15.9545 253.172 15.8162C253.21 14.6887 253.459 13.6635 253.917 12.7407C254.394 11.8154 254.958 11.037 255.61 10.4055C256.278 9.75226 256.903 9.31108 257.486 9.08198C257.862 8.93731 258.24 8.81204 258.621 8.70617C259 8.5809 259.374 8.49563 259.742 8.45037C260.674 8.336 261.494 8.44206 262.204 8.76855C262.914 9.09504 263.326 9.72399 263.44 10.6554C263.505 11.1793 263.398 11.675 263.121 12.1424C262.863 12.6074 262.51 13.0249 262.063 13.395C261.633 13.7432 261.206 14.0321 260.781 14.2615C260.135 14.6166 259.384 14.9156 258.527 15.1587C257.69 15.3993 256.893 15.5661 256.136 15.659C255.651 15.7186 255.201 15.7443 254.787 15.7361L254.79 15.7652C254.8 15.8428 254.8 15.9216 254.79 16.0016C254.778 16.0622 254.776 16.1313 254.786 16.209C254.776 16.289 254.776 16.3678 254.785 16.4454C254.792 16.5036 254.8 16.5618 254.807 16.62C254.881 17.2216 255.063 17.7409 255.353 18.178C255.66 18.5933 255.998 18.9457 256.369 19.2351C256.737 19.505 257.039 19.7239 257.277 19.8918C257.647 20.0235 257.91 20.1587 258.065 20.2972C258.242 20.4528 258.336 20.5791 258.348 20.6761C258.377 20.909 258.187 21.0504 257.78 21.1005ZM256.762 14.2527C257.344 14.1813 257.95 14.0674 258.581 13.9112C259.209 13.7355 259.78 13.4882 260.292 13.1692C260.693 12.9034 261.056 12.5732 261.382 12.1786C261.705 11.7647 261.836 11.3054 261.774 10.8009C261.726 10.4128 261.535 10.1408 261.201 9.98488C260.867 9.82895 260.418 9.78554 259.856 9.85463C259.215 9.93326 258.531 10.1355 257.803 10.4612C257.541 10.5722 257.224 10.7982 256.852 11.1393C256.5 11.4781 256.151 11.9247 255.805 12.4793C255.457 13.0144 255.189 13.6382 255.001 14.3507C255.236 14.3416 255.502 14.3385 255.797 14.3416C256.11 14.3228 256.432 14.2932 256.762 14.2527Z" fill="black"/>
<path d="M268.308 19.7486C268.231 19.7582 268.161 19.7568 268.101 19.7446C268.043 19.7517 267.973 19.7503 267.893 19.7405C267.333 19.6713 266.774 19.5234 266.214 19.2967C265.674 19.0676 265.204 18.6919 264.805 18.1697C264.404 17.628 264.146 16.8915 264.032 15.9601C263.986 15.5914 263.967 15.19 263.972 14.756C263.986 14.0649 264.063 13.2479 264.203 12.3049C264.361 11.3401 264.562 10.3306 264.806 9.2763L264.777 9.27987C264.661 9.29417 264.557 9.32668 264.464 9.3774C264.372 9.42812 264.277 9.45944 264.18 9.47135C263.87 9.50947 263.692 9.34419 263.647 8.9755C263.621 8.76206 263.683 8.54759 263.834 8.3321C263.984 8.11661 264.137 7.99934 264.293 7.98028L265.162 7.84395C265.493 6.5231 265.831 5.27016 266.178 4.08513C266.542 2.87832 266.858 1.9236 267.126 1.22096C267.202 1.0344 267.322 0.891598 267.487 0.792536C267.67 0.671688 267.858 0.599351 268.052 0.575526C268.246 0.5517 268.417 0.579959 268.564 0.660304C268.729 0.718861 268.821 0.825758 268.84 0.980994C268.845 1.0198 268.835 1.0998 268.811 1.22099L267.488 5.37198C267.359 5.76211 267.237 6.13164 267.122 6.48058C267.027 6.82713 266.922 7.17488 266.807 7.52382C267.195 7.47617 267.594 7.43703 268.004 7.4064C268.433 7.37338 268.914 7.35382 269.445 7.3477C269.544 7.3552 269.649 7.4112 269.761 7.51571C269.872 7.62023 269.936 7.7404 269.953 7.87623C269.965 7.97325 269.938 8.07504 269.872 8.18159C269.823 8.26636 269.693 8.33155 269.482 8.37716C269.024 8.49256 268.514 8.5945 267.954 8.683C267.391 8.7521 266.888 8.82375 266.444 8.89795C266.143 10.1364 265.916 11.2574 265.764 12.261C265.631 13.2622 265.539 14.1993 265.488 15.0721C265.486 15.2103 265.483 15.3485 265.48 15.4868C265.497 15.6226 265.512 15.7487 265.527 15.8651C265.634 16.7383 265.947 17.3598 266.465 17.7295C266.983 18.0992 267.544 18.3357 268.147 18.4388C268.511 18.5124 268.768 18.599 268.918 18.6988C269.09 18.8155 269.183 18.9321 269.197 19.0486C269.216 19.2038 269.136 19.3516 268.956 19.4918C268.796 19.6297 268.58 19.7153 268.308 19.7486Z" fill="black"/>
<path d="M277.743 17.6743C277.316 17.7267 276.993 17.5793 276.773 17.232C276.553 16.8848 276.412 16.4589 276.35 15.9544C276.274 15.3335 276.289 14.6521 276.394 13.9103C276.5 13.1685 276.623 12.5625 276.762 12.0924C276.955 11.4187 277.1 10.8298 277.195 10.3256C277.291 9.82143 277.321 9.42381 277.285 9.13274C277.242 8.78346 277.114 8.62192 276.901 8.64813C276.762 8.64541 276.492 8.76727 276.089 9.01373C275.686 9.2602 275.272 9.57696 274.846 9.96401C274.579 10.1938 274.227 10.5325 273.789 10.9802C273.349 11.4084 272.895 11.8779 272.426 12.3885C271.957 12.8991 271.545 13.3929 271.189 13.8698C270.715 14.4993 270.411 15.0685 270.276 15.5774C270.196 15.8828 270.02 16.0521 269.748 16.0855C269.573 16.1069 269.418 16.0472 269.283 15.9062C269.145 15.7459 269.074 15.4887 269.07 15.1347C269.088 14.4824 269.176 13.6739 269.333 12.7091C269.51 11.742 269.717 10.7021 269.955 9.5896C270.209 8.4553 270.485 7.32832 270.781 6.20866C271.074 5.06959 271.367 4.00933 271.661 3.02788C271.973 2.04405 272.256 1.22141 272.51 0.559961C272.646 0.228045 272.87 0.0430267 273.18 0.0049056C273.355 -0.0165376 273.519 0.0323179 273.671 0.151472C273.821 0.25122 273.91 0.417522 273.939 0.650376C273.949 0.727994 273.94 0.896506 273.913 1.15591C273.905 1.41294 273.869 1.68323 273.805 1.96681C273.761 2.248 273.691 2.48307 273.596 2.672C273.44 3.0063 273.247 3.35507 273.016 3.7183C272.785 4.08153 272.59 4.4994 272.431 4.97191C272.089 6.03813 271.817 6.94809 271.614 7.70179C271.409 8.43609 271.252 9.08563 271.144 9.6504C271.056 10.2128 270.981 10.7243 270.919 11.1849C270.857 11.6455 270.788 12.1267 270.712 12.6285C270.836 12.3571 270.957 12.1355 271.074 11.9636C271.19 11.7917 271.308 11.6295 271.427 11.477C271.768 11.0412 272.185 10.5863 272.678 10.1121C273.171 9.63785 273.686 9.18066 274.223 8.7405C274.78 8.29795 275.307 7.93779 275.804 7.66001C276.319 7.36045 276.741 7.19041 277.071 7.14991C277.44 7.10464 277.795 7.18907 278.136 7.40321C278.475 7.59794 278.687 8.03489 278.77 8.71405C278.818 9.10214 278.808 9.58589 278.741 10.1653C278.692 10.7229 278.547 11.3907 278.308 12.1685C278.117 12.8616 277.962 13.5997 277.841 14.3827C277.738 15.1439 277.684 15.7512 277.681 16.2046C277.911 16.4719 278.047 16.7801 278.09 17.1294C278.13 17.4593 278.015 17.6409 277.743 17.6743Z" fill="black"/>
<path d="M283.353 17.9605C283.197 17.9796 283.009 17.9731 282.789 17.9411C281.557 17.6983 280.615 17.164 279.962 16.3381C279.307 15.4928 278.918 14.5657 278.794 13.5566C278.775 13.4014 278.757 13.2559 278.74 13.12C278.74 12.9624 278.742 12.8145 278.745 12.6763C278.783 11.5488 279.032 10.5236 279.49 9.60069C279.967 8.67542 280.531 7.89704 281.183 7.26556C281.851 6.61229 282.476 6.17111 283.059 5.94201C283.435 5.79734 283.813 5.67207 284.194 5.56621C284.573 5.44094 284.947 5.35567 285.315 5.3104C286.247 5.19604 287.067 5.3021 287.777 5.62858C288.487 5.95507 288.899 6.58402 289.013 7.51544C289.078 8.03936 288.971 8.53502 288.694 9.00242C288.435 9.46744 288.083 9.88497 287.636 10.255C287.206 10.6033 286.779 10.8921 286.354 11.1215C285.708 11.4766 284.957 11.7756 284.1 12.0187C283.263 12.2594 282.466 12.4261 281.709 12.5191C281.224 12.5786 280.774 12.6043 280.36 12.5961L280.363 12.6253C280.373 12.7029 280.373 12.7817 280.363 12.8617C280.351 12.9223 280.349 12.9914 280.359 13.069C280.349 13.149 280.349 13.2278 280.358 13.3054C280.365 13.3636 280.373 13.4219 280.38 13.4801C280.454 14.0816 280.635 14.6009 280.926 15.0381C281.233 15.4534 281.571 15.8057 281.942 16.0951C282.31 16.3651 282.612 16.584 282.85 16.7518C283.22 16.8836 283.483 17.0187 283.638 17.1573C283.815 17.3129 283.909 17.4392 283.921 17.5362C283.949 17.769 283.76 17.9105 283.353 17.9605ZM282.334 11.1128C282.917 11.0413 283.523 10.9274 284.154 10.7712C284.782 10.5955 285.353 10.3482 285.865 10.0293C286.266 9.7634 286.629 9.43319 286.955 9.03864C287.278 8.62469 287.409 8.16545 287.347 7.66093C287.299 7.27284 287.108 7.00084 286.774 6.84491C286.44 6.68899 285.991 6.64557 285.429 6.71467C284.788 6.79329 284.104 6.99549 283.376 7.32127C283.114 7.43224 282.797 7.65828 282.425 7.99938C282.073 8.3381 281.724 8.78473 281.378 9.33928C281.03 9.87443 280.762 10.4983 280.574 11.2108C280.809 11.2016 281.075 11.1985 281.37 11.2016C281.683 11.1829 282.005 11.1533 282.334 11.1128Z" fill="black"/>
<path d="M290.432 14.9344C290.258 14.9558 290.085 14.9082 289.913 14.7914C289.758 14.6528 289.659 14.4089 289.616 14.0596C289.606 13.982 289.597 13.9044 289.587 13.8268C289.595 13.7274 289.602 13.628 289.61 13.5286C289.68 12.6533 289.792 11.7236 289.947 10.7394C290.121 9.75288 290.303 8.82454 290.491 7.95441C290.678 7.06487 290.809 6.36921 290.885 5.86742C290.944 5.54503 291.052 5.3052 291.21 5.14793C291.388 4.98827 291.573 4.89653 291.768 4.8727C291.981 4.8465 292.164 4.89297 292.316 5.01212C292.486 5.10949 292.584 5.2649 292.61 5.47834C292.631 5.65299 292.597 5.85418 292.507 6.08192C292.417 6.30967 292.313 6.66712 292.195 7.15427C292.097 7.63903 291.999 8.1238 291.901 8.60857C291.803 9.09334 291.71 9.4593 291.622 9.70645C292.221 8.9633 292.765 8.34493 293.256 7.85132C293.747 7.35771 294.414 6.85236 295.256 6.33526C295.62 6.09357 296.113 5.9346 296.734 5.85835C297.18 5.80356 297.637 5.83608 298.105 5.95592C298.573 6.07576 298.98 6.34096 299.326 6.75153C299.671 7.16209 299.894 7.77487 299.994 8.58986C300.033 8.90033 299.877 9.07701 299.528 9.11989C299.392 9.13657 299.239 9.09623 299.07 8.99886C298.919 8.89911 298.779 8.71936 298.649 8.45961C298.458 8.02999 298.202 7.70691 297.88 7.49039C297.575 7.25209 297.199 7.16033 296.753 7.21513C296.481 7.24849 296.178 7.34482 295.843 7.50414C295.433 7.69239 294.931 8.01987 294.339 8.48658C293.743 8.93389 293.141 9.48061 292.531 10.1267C291.94 10.7705 291.408 11.4859 290.933 12.2729C290.95 12.4088 290.94 12.5676 290.903 12.7494C290.885 12.9288 290.89 13.1252 290.916 13.3386C290.921 13.3774 290.952 13.4721 291.01 13.6226C291.068 13.773 291.106 13.9259 291.125 14.0811C291.152 14.2946 291.087 14.4896 290.931 14.6663C290.793 14.8212 290.627 14.9106 290.432 14.9344Z" fill="black"/>
<path d="M156.736 42.2803C154.054 42.936 151.789 45.2605 150.478 48.6977C150.219 49.393 149.941 49.9295 149.882 49.8897C149.802 49.8699 149.425 49.4526 149.007 48.9559C146.683 46.1347 143.365 44.585 140.901 45.1612C139.53 45.4791 138.636 46.2142 138.001 47.5453C137.524 48.5785 137.484 48.8566 137.504 51.1414C137.544 55.4726 138.895 59.5654 141.338 62.8039C142.888 64.8701 144.478 66.2807 146.127 67.0953C147.18 67.6119 147.637 67.7311 148.749 67.7311H150.1V68.3867C150.1 68.9033 150.2 69.0821 150.617 69.241C151.65 69.6185 152.385 68.8437 154.69 65.0489C155.504 63.678 156.974 61.3138 157.928 59.7839C160.054 56.3667 161.703 53.0487 162.16 51.3401C162.657 49.4328 162.597 46.5718 162.061 45.1612C161.107 42.7572 159.18 41.7042 156.736 42.2803ZM159.438 44.744C160.173 45.4791 160.352 46.7307 160.034 48.7175C159.676 50.9229 158.842 53.0487 157.173 56.009C156.378 57.4197 155.325 59.2872 154.868 60.1416C154.392 61.0157 153.517 62.3866 152.921 63.2211C152.305 64.0754 151.551 65.1681 151.213 65.6648C150.696 66.4198 150.517 66.5589 150.199 66.4198C149.981 66.3403 149.464 66.2609 149.047 66.2609C147.517 66.2211 145.848 64.9695 143.961 62.3866C141.557 59.1084 140.663 57.3005 140.087 54.519C138.795 48.1215 140.126 45.8963 144.1 47.8632C145.888 48.7771 147.378 50.3666 148.59 52.711C149.623 54.7176 150.06 55.1746 150.915 55.1547C152.047 55.1349 152.464 54.4196 152.782 52.0355C153.021 50.3467 154.014 47.5255 154.829 46.2937C156.2 44.2274 158.226 43.532 159.438 44.744Z" fill="black"/>
</g>
</svg>
