<svg width="60" height="12" viewBox="0 0 60 12" fill="none" xmlns="http://www.w3.org/2000/svg">
<path d="M3.30097 9.90291H4.95146V11.5534H1.65049V9.90291H0V3.30097H3.30097V9.90291ZM6.60194 3.30097V9.90291H4.95146V3.30097H6.60194ZM11.5534 3.30097V9.90291H9.90291V11.5534H6.60194V9.90291H8.25243V3.30097H11.5534Z" fill="black" fill-opacity="0.1"/>
<path d="M15.2427 1.65048V0H18.5437V1.65048H15.2427ZM11.9418 11.5534V9.90291H15.2427V4.95146H13.5922V3.30097H18.5437V9.90291H21.8447V11.5534H11.9418Z" fill="black" fill-opacity="0.1"/>
<path d="M22.7184 11.5534V4.95146H19.4175V3.30097H22.7184V0H26.0194V3.30097H29.3204V4.95146H26.0194V11.5534H22.7184Z" fill="black" fill-opacity="0.1"/>
<path d="M30.1942 11.5534V0H33.4951V3.30097H40.0971V4.95146H41.7476V11.5534H38.4466V4.95146H33.4951V11.5534H30.1942Z" fill="black" fill-opacity="0.1"/>
<path d="M50.0971 11.5534V9.90291H48.4466V3.30097H51.7476V9.90291H56.699V3.30097H60V11.5534H50.0971Z" fill="black" fill-opacity="0.1"/>
</svg>
